<?xml version="1.0" standalone="no"?>
<!DOCTYPE svg PUBLIC "-//W3C//DTD SVG 20010904//EN"
 "http://www.w3.org/TR/2001/REC-SVG-20010904/DTD/svg10.dtd">
<svg version="1.0" xmlns="http://www.w3.org/2000/svg"
 width="1080.000000pt" height="1080.000000pt" viewBox="0 0 1080.000000 1080.000000"
 preserveAspectRatio="xMidYMid meet">
<metadata>
Created by potrace 1.11, written by Peter Selinger 2001-2013
</metadata>
<g transform="translate(0.000000,1080.000000) scale(0.100000,-0.100000)"
fill="#000000" stroke="none">
<path d="M4 7913 c1 -1589 5 -2899 8 -2913 3 -14 9 -63 12 -108 26 -318 104
-719 202 -1042 194 -638 468 -1177 873 -1715 41 -55 77 -102 80 -105 3 -3 34
-40 69 -82 171 -210 432 -475 638 -648 16 -14 56 -48 89 -76 176 -149 507
-377 750 -515 507 -290 1141 -524 1659 -613 16 -3 52 -10 80 -15 28 -6 69 -13
91 -16 368 -54 507 -63 905 -59 179 1 341 5 360 7 19 3 73 9 120 13 47 4 87 8
90 9 3 1 34 5 70 9 36 5 72 10 80 11 8 1 49 8 90 15 77 12 210 38 335 65 210
45 540 148 774 240 734 290 1346 699 1906 1275 462 474 873 1105 1117 1715
154 384 289 872 333 1205 3 25 8 52 10 60 2 8 7 44 10 80 4 35 8 67 10 70 2 3
6 50 10 105 4 55 10 109 13 120 4 11 8 1319 9 2908 l4 2887 -2399 0 -2400 0 0
-1038 0 -1039 1347 -1 c740 0 1353 -1 1361 -1 13 -1 15 -202 14 -1754 -1
-1537 -4 -1857 -18 -1934 -2 -10 -7 -47 -11 -83 -4 -35 -11 -75 -16 -88 -5
-12 -11 -37 -14 -55 -3 -18 -8 -39 -10 -47 -2 -8 -7 -29 -9 -46 -22 -126 -110
-407 -186 -594 -47 -114 -155 -329 -214 -425 -20 -33 -50 -82 -67 -109 -31
-50 -177 -250 -221 -302 -74 -88 -105 -121 -218 -234 -243 -244 -497 -432
-800 -592 -315 -167 -733 -303 -1050 -344 -19 -2 -48 -6 -65 -8 -32 -5 -104
-12 -195 -21 -79 -8 -361 -8 -450 0 -92 7 -251 25 -288 31 -511 88 -938 255
-1337 524 -197 133 -320 235 -495 410 -171 172 -257 273 -351 410 -24 36 -47
67 -51 70 -10 8 -129 204 -170 280 -19 36 -55 103 -80 150 -75 140 -164 378
-226 605 -16 57 -69 320 -77 380 -3 28 -8 64 -11 80 -2 17 -7 59 -10 95 -7 69
-13 3565 -7 3590 4 13 162 15 1361 15 l1357 0 0 1035 0 1035 -2397 3 -2398 2
4 -2887z"/>
</g>
</svg>
