<?xml version="1.0" encoding="UTF-8" standalone="no"?>
<svg
   xmlns:serif="http://www.serif.com/"
   xmlns:dc="http://purl.org/dc/elements/1.1/"
   xmlns:cc="http://creativecommons.org/ns#"
   xmlns:rdf="http://www.w3.org/1999/02/22-rdf-syntax-ns#"
   xmlns:svg="http://www.w3.org/2000/svg"
   xmlns="http://www.w3.org/2000/svg"
   xmlns:sodipodi="http://sodipodi.sourceforge.net/DTD/sodipodi-0.dtd"
   xmlns:inkscape="http://www.inkscape.org/namespaces/inkscape"
   width="100%"
   height="100%"
   viewBox="0 0 1080 1080"
   version="1.1"
   xml:space="preserve"
   style="fill-rule:evenodd;clip-rule:evenodd;stroke-linejoin:round;stroke-miterlimit:2;"
   id="svg942"
   sodipodi:docname="lightlogo.svg"
   inkscape:version="1.0.2 (e86c870879, 2021-01-15)"><metadata
   id="metadata948"><rdf:RDF><cc:Work
       rdf:about=""><dc:format>image/svg+xml</dc:format><dc:type
         rdf:resource="http://purl.org/dc/dcmitype/StillImage" /><dc:title></dc:title></cc:Work></rdf:RDF></metadata><defs
   id="defs946">
            
            
        
                
            </defs><sodipodi:namedview
   pagecolor="#ffffff"
   bordercolor="#666666"
   borderopacity="1"
   objecttolerance="10"
   gridtolerance="10"
   guidetolerance="10"
   inkscape:pageopacity="0"
   inkscape:pageshadow="2"
   inkscape:window-width="1366"
   inkscape:window-height="712"
   id="namedview944"
   showgrid="false"
   inkscape:zoom="0.47962963"
   inkscape:cx="540"
   inkscape:cy="540"
   inkscape:window-x="0"
   inkscape:window-y="0"
   inkscape:window-maximized="1"
   inkscape:current-layer="Color1" />
    <rect
   id="Color"
   x="0"
   y="0"
   width="1080"
   height="1080"
   style="fill:none;" />
    <g
   id="Color1"
   serif:id="Color"
   transform="matrix(2.3898155,0,0,2.3918185,-750.50402,-828.1197)">
        <g
   transform="matrix(1.5732028,0,0,1.5732028,-215.15916,-227.17532)"
   id="g933">
                
            </g><path
   d="m 352.06102,696.81325 h -0.37731 c -19.39208,-29.22488 -31.75678,-62.65283 -35.99364,-97.6301 v -3.3266 h 87.18966 c 2.16953,12.46375 6.02907,24.53919 11.43716,35.89853 l 0.45592,0.16586 c 6.73652,14.10583 15.87053,27.10253 27.13475,38.36597 26.06572,26.06729 61.42265,40.71156 98.28096,40.71156 v 0 c 20.05236,0 39.65668,-4.33197 57.5631,-12.47868 l 99.0906,36.06517 c -42.03844,40.49855 -98.17091,63.18421 -156.64584,63.18421 h -0.008 c -59.87412,0 -117.30359,-23.78615 -159.64072,-66.12564 -10.71399,-10.7132 -20.24102,-22.39246 -28.48678,-34.83028 z M 679.18733,546.67441 V 433.00085 H 565.27952 v -86.7707 h 200.68086 v 225.7703 c 0,2.07755 -0.0236,4.15275 -0.0865,6.2248 z M 400.82026,446.79461 314.0472,414.85232 v -68.62217 h 200.68087 v 86.7707 H 400.82026 Z"
   style="fill:#000000;stroke-width:0.786059;fill-opacity:1"
   id="path935" />
    </g>
</svg>
