<?xml version="1.0" encoding="UTF-8" standalone="no"?>
<svg
   xmlns:serif="http://www.serif.com/"
   xmlns:dc="http://purl.org/dc/elements/1.1/"
   xmlns:cc="http://creativecommons.org/ns#"
   xmlns:rdf="http://www.w3.org/1999/02/22-rdf-syntax-ns#"
   xmlns:svg="http://www.w3.org/2000/svg"
   xmlns="http://www.w3.org/2000/svg"
   xmlns:sodipodi="http://sodipodi.sourceforge.net/DTD/sodipodi-0.dtd"
   xmlns:inkscape="http://www.inkscape.org/namespaces/inkscape"
   width="100%"
   height="100%"
   viewBox="0 0 1080 1080"
   version="1.1"
   xml:space="preserve"
   style="fill-rule:evenodd;clip-rule:evenodd;stroke-linejoin:round;stroke-miterlimit:2;"
   id="svg942"
   sodipodi:docname="logo.svg"
   inkscape:version="1.0.2 (e86c870879, 2021-01-15)"><metadata
   id="metadata948"><rdf:RDF><cc:Work
       rdf:about=""><dc:format>image/svg+xml</dc:format><dc:type
         rdf:resource="http://purl.org/dc/dcmitype/StillImage" /></cc:Work></rdf:RDF></metadata><defs
   id="defs946" /><sodipodi:namedview
   pagecolor="#ffffff"
   bordercolor="#666666"
   borderopacity="1"
   objecttolerance="10"
   gridtolerance="10"
   guidetolerance="10"
   inkscape:pageopacity="0"
   inkscape:pageshadow="2"
   inkscape:window-width="1366"
   inkscape:window-height="712"
   id="namedview944"
   showgrid="false"
   inkscape:zoom="0.47962963"
   inkscape:cx="540"
   inkscape:cy="956.98842"
   inkscape:window-x="0"
   inkscape:window-y="0"
   inkscape:window-maximized="1"
   inkscape:current-layer="svg942" />
    <rect
   id="Color"
   x="0"
   y="0"
   width="1080"
   height="1080"
   style="fill:none;" />
    <g
   id="Color1"
   serif:id="Color"
   transform="matrix(2.3898155,0,0,2.3918185,-750.50402,-828.1197)">
        <g
   transform="matrix(0.786059,0,0,0.786059,115.528,147.528)"
   id="g939">
            <g
   transform="matrix(2.00138,0,0,2.00138,-420.69,-476.686)"
   id="g933">
                <path
   d="m 546.328,635.199 c -20.319,10.612 -43.083,16.303 -66.433,16.303 h -10e-4 c -38.061,0 -74.563,-15.12 -101.477,-42.033 -26.913,-26.913 -42.032,-63.415 -42.032,-101.476 v -88.355 l 1.043,-55.155 54.112,55.155 v 88.355 c 0,23.433 9.309,45.906 25.878,62.475 16.57,16.57 39.043,25.879 62.476,25.879 v 0 c 23.433,0 45.906,-9.309 62.476,-25.879 13.05,-13.05 21.596,-29.762 24.638,-47.721 h 0.239 c 0.821,-4.843 1.241,-9.777 1.241,-14.754 v -88.355 h -72.406 v -55.155 h 127.561 v 143.51 c 0,38.061 -15.12,74.563 -42.033,101.476 -10.447,10.448 -22.34,19.118 -35.208,25.816 z"
   style="fill:#171738"
   id="path931" />
            </g>
            <g
   transform="translate(-1147.87,-7.91925)"
   id="g937">
                <path
   d="m 1448.78,706.703 h -0.48 c -24.67,-37.179 -40.4,-79.705 -45.79,-124.202 v -4.232 h 110.92 c 2.76,15.856 7.67,31.218 14.55,45.669 l 0.58,0.211 c 8.57,17.945 20.19,34.479 34.52,48.808 33.16,33.162 78.14,51.792 125.03,51.792 v 0 c 25.51,0 50.45,-5.511 73.23,-15.875 l 126.06,45.881 c -53.48,51.521 -124.89,80.381 -199.28,80.381 h -0.01 c -76.17,0 -149.23,-30.26 -203.09,-84.123 -13.63,-13.629 -25.75,-28.487 -36.24,-44.31 z M 1864.94,515.701 V 371.089 H 1720.03 V 260.702 h 255.3 V 547.92 c 0,2.643 -0.03,5.283 -0.11,7.919 z M 1510.81,388.637 1400.42,348.001 v -87.299 h 255.3 v 110.387 h -144.91 z"
   style="fill:#1847b4"
   id="path935" />
            </g>
        </g>
    </g>
</svg>
